<svg width="40" height="40" viewBox="0 0 40 40" fill="none" xmlns="http://www.w3.org/2000/svg">
  <path d="M33.3333 13.3329L23.3333 4.56619C22.4166 3.74626 21.2299 3.29297 20 3.29297C18.7701 3.29297 17.5833 3.74626 16.6666 4.56619L6.66664 13.3329C6.13726 13.8063 5.71481 14.3871 5.42743 15.0366C5.14005 15.6861 4.99433 16.3893 4.99997 17.0995V31.6662C4.99997 32.9923 5.52676 34.264 6.46444 35.2017C7.40212 36.1394 8.67389 36.6662 9.99997 36.6662H30C31.3261 36.6662 32.5978 36.1394 33.5355 35.2017C34.4732 34.264 35 32.9923 35 31.6662V17.0829C35.0033 16.3755 34.8564 15.6754 34.5691 15.029C34.2818 14.3826 33.8606 13.8044 33.3333 13.3329V13.3329ZM23.3333 33.3329H16.6666V24.9995C16.6666 24.5575 16.8422 24.1336 17.1548 23.821C17.4674 23.5085 17.8913 23.3329 18.3333 23.3329H21.6666C22.1087 23.3329 22.5326 23.5085 22.8452 23.821C23.1577 24.1336 23.3333 24.5575 23.3333 24.9995V33.3329ZM31.6666 31.6662C31.6666 32.1082 31.491 32.5321 31.1785 32.8447C30.8659 33.1573 30.442 33.3329 30 33.3329H26.6666V24.9995C26.6666 23.6734 26.1399 22.4017 25.2022 21.464C24.2645 20.5263 22.9927 19.9995 21.6666 19.9995H18.3333C17.0072 19.9995 15.7355 20.5263 14.7978 21.464C13.8601 22.4017 13.3333 23.6734 13.3333 24.9995V33.3329H9.99997C9.55795 33.3329 9.13402 33.1573 8.82146 32.8447C8.5089 32.5321 8.33331 32.1082 8.33331 31.6662V17.0829C8.33361 16.8462 8.3843 16.6123 8.482 16.3968C8.57971 16.1813 8.72219 15.989 8.89997 15.8329L18.9 7.08286C19.2041 6.81566 19.5951 6.6683 20 6.6683C20.4048 6.6683 20.7958 6.81566 21.1 7.08286L31.1 15.8329C31.2778 15.989 31.4202 16.1813 31.5179 16.3968C31.6156 16.6123 31.6663 16.8462 31.6666 17.0829V31.6662Z" fill="currentColor"/>
</svg>
