<svg width="48" height="54" viewBox="0 0 48 54" fill="none" xmlns="http://www.w3.org/2000/svg">
<rect y="3" width="48" height="48" rx="16" fill="#21916F"/>
<path d="M25.148 18.472C24.116 18.472 23.192 18.676 22.376 19.084C21.584 19.492 20.912 20.08 20.36 20.848C19.808 21.592 19.388 22.504 19.1 23.584C18.836 24.664 18.704 25.876 18.704 27.22C18.704 29.044 18.92 30.604 19.352 31.9C19.808 33.172 20.516 34.144 21.476 34.816C22.436 35.488 23.66 35.824 25.148 35.824C26.204 35.824 27.248 35.704 28.28 35.464C29.336 35.224 30.476 34.888 31.7 34.456V39.028C30.572 39.484 29.456 39.82 28.352 40.036C27.248 40.252 26.012 40.36 24.644 40.36C22.004 40.36 19.82 39.82 18.092 38.74C16.388 37.636 15.128 36.1 14.312 34.132C13.496 32.14 13.088 29.824 13.088 27.184C13.088 25.24 13.352 23.464 13.88 21.856C14.408 20.224 15.176 18.82 16.184 17.644C17.216 16.468 18.476 15.556 19.964 14.908C21.476 14.26 23.204 13.936 25.148 13.936C26.42 13.936 27.692 14.104 28.964 14.44C30.26 14.752 31.496 15.184 32.672 15.736L30.908 20.164C29.948 19.708 28.976 19.312 27.992 18.976C27.032 18.64 26.084 18.472 25.148 18.472Z" fill="white"/>
</svg>
